<svg xmlns="http://www.w3.org/2000/svg" width="414.2" height="102.1" xml:space="preserve"><g fill-rule="evenodd" clip-rule="evenodd"><path fill="#FFF" d="M.2 102.5V.3h414.2v102.2H.2zm345.6-51.9v26.6c0 2.7.4 5.4 1 8 1.8 7 6.1 11.7 13.8 12.4 4.1.4 8.2.5 12.4.6 8 .3 16 .3 23.9-.7 7-.8 11.7-4.7 13.8-11.5.6-2.3 1-4.8 1-7.2V26.2l-.1-5.9A16.2 16.2 0 0 0 398.5 5c-2.5-.5-5-.6-7.6-.6l-28.7.1c-4.2.1-8 1.7-11 4.8a20.5 20.5 0 0 0-5.4 14.6v26.7zm-119-46.1-1.8-.2h-20.6c-1.1 0-1.9.4-2.5 1.4l-14.3 22.6-1.3 1.7L185 28 171.8 6c-.6-1-1.4-1.6-2.6-1.6l-21-.1c-.4 0-1 .2-1 .5-.2.2 0 .7.1 1 .2.5.6.8.9 1.2l26.4 41.3c.9 1.4.7 2.6-.1 4l-26 40.2-3.6 5.7h.7l20.4.2c2.5 0 4.2-1 5.2-3.2l2-4c3-4.8 5.8-9.7 8.7-14.5l4.2-7 1.3 1.9 15.8 24.7c.9 1.5 2 2.1 3.7 2h20.3l1.3-.3-1.3-2.1L199 51.9c-.8-1.2-.8-2.3 0-3.5L223 10.6l3.9-6.1zM141.4 98l-.4-2-8-25.5-11.3-36c-2.2-7-4.4-14-6.8-20.8C112.2 6.2 106 3 99.3 3.3a15 15 0 0 0-14.3 10c-2.2 5.3-3.7 10.8-5.5 16.3l-21 66.6-.4 1.6c.7.2 1.2.4 1.7.4H77c1.8 0 2.5-.5 3-2.2l1.3-5 15.1-54.6 2-7.3.5 1.3 3.9 12c5.5 17.8 11 35.5 16.7 53.2.7 2.4 1.2 2.7 3.7 2.7h15.5l2.6-.3zM257.8 4.3l1.3 2.5c9.3 16.9 18.5 33.8 27.9 50.6 1.6 3 2.4 5.8 2.2 9.2v29.3c0 1.9.5 2.3 2.3 2.3h15.3c2.4 0 2.8-.4 2.8-2.7V64.7c0-2.2.6-4.2 1.6-6.1l27.9-50.4 2-3.8-.6-.1h-21.7c-.9 0-1.3.4-1.6 1.1l-17.7 32.7-.7 1-.8-1.5-9.8-19.1-6-12c-.9-1.7-2-2.6-3.9-2.2h-20.5zM42.4 98l.2-3.6V27.8c0-3.1.2-3.3 3.3-3.3l19 .3c2 0 3-.7 3.7-2.5l.8-3.3c1.3-5 3.2-9.7 7.5-13 .7-.6 1.5-1 2.4-1.6H2.7L2.5 6v16.3c-.1 1.8.2 2.2 2.1 2.2h15.8l1.7.3.1 2.1v68.7c0 2.1.5 2.6 2.6 2.5h15.7l2-.2zm211-46.6V6.5c0-1.8-.8-2.4-2.6-2.4-5 .1-10 .2-15 .1-2.4 0-2.9.3-2.9 2.8v88.8c0 1.8.6 2.4 2.4 2.4H252c1-.2 1.4-.8 1.4-1.6V51.4z"/><path d="M345.8 50.6V24c0-5.5 1.6-10.5 5.5-14.6 3-3.1 6.7-4.7 11-4.8 9.5-.2 19-.2 28.6-.1 2.5 0 5.1 0 7.6.6a16.2 16.2 0 0 1 13 15.3l.3 5.9v52.6c0 2.4-.5 5-1.2 7.2-2 6.8-6.8 10.7-13.7 11.5-8 1-16 1-24 .7a201 201 0 0 1-12.3-.6c-7.7-.7-12-5.4-13.8-12.4a36 36 0 0 1-1-8V50.6zm45.7.8V30.2c0-3.6-1.5-5.3-5-5.4a362 362 0 0 0-15.7 0c-3.4 0-4.7 1.5-4.7 5v42.4c0 3 1.9 5.2 4.9 5.3h16.4c2.4 0 3.6-1.4 4-3.8V72l.1-20.6zM226.9 4.5l-3.9 6L199 48.5c-.8 1.2-.8 2.3 0 3.5l28.3 43.9 1.3 2-1.3.4h-20.3c-1.7.1-2.8-.5-3.7-2l-15.8-24.7-1.3-2-4.2 7-8.6 14.6c-.8 1.3-1.4 2.6-2 4a5.2 5.2 0 0 1-5.3 3.2l-20.4-.2h-.7l3.6-5.7 26-40.3c.8-1.3 1-2.5 0-3.9L148.3 7c-.3-.4-.7-.7-.9-1.2-.1-.3-.3-.8-.2-1 .2-.3.7-.6 1-.6l21 .2c1.3 0 2 .6 2.7 1.6L185 28l1.3 1.9 1.3-1.7 14.3-22.6c.6-1 1.4-1.5 2.5-1.5H225l1.9.3zM141.3 98l-2.6.2h-15.5c-2.5 0-3-.2-3.7-2.6l-16.7-53.2-3.9-12c0-.3-.2-.6-.5-1.3l-2 7.3-15 54.5L80 96c-.5 1.7-1.2 2.2-3 2.2H59.8c-.5 0-1-.2-1.7-.4l.4-1.6 21-66.6c1.8-5.5 3.3-11 5.5-16.3a15 15 0 0 1 14.3-10c6.6-.2 12.9 2.9 15.5 10.4 2.4 6.9 4.6 13.8 6.8 20.8l11.3 36 8 25.5.4 2zM257.8 4.3H278.4c1.8-.4 3 .5 3.7 2.1l6 12 9.9 19.2.8 1.5.7-1 17.7-32.7c.3-.7.7-1.1 1.6-1.1h22.3l-2 4-27.9 50.3a12 12 0 0 0-1.6 6v30.9c0 2.3-.4 2.8-2.8 2.7h-15.3c-1.8 0-2.4-.4-2.4-2.3v-8.8l.1-9.1V66.6c.2-3.4-.6-6.3-2.2-9.2-9.4-16.8-18.6-33.7-27.9-50.6l-1.3-2.5zM42.4 98l-2 .1H27.7l-2.8.1c-2 0-2.6-.4-2.6-2.5V25c-.7-.2-1.3-.4-1.8-.4H4.6c-1.9 0-2.2-.4-2.2-2.2V6c0-.6.2-1.1.4-1.7h76.5c-.9.5-1.7 1-2.4 1.6-4.3 3.3-6.2 8-7.5 13l-.8 3.3c-.7 1.8-1.8 2.6-3.7 2.5l-19-.3c-3 0-3.3.2-3.3 3.3v66.6c0 1.1 0 2.3-.2 3.6zM253.3 51.4v42.8l.1 2.4c0 .8-.4 1.4-1.3 1.5H249l-12.8.1h-1c-1.7 0-2.3-.6-2.3-2.4V7c0-2.5.5-2.8 3-2.8h14.9c1.8-.1 2.6.5 2.6 2.3v44.9z"/><path fill="#FFF" d="M391.5 51.4V72l-.1 1.7c-.4 2.4-1.6 3.7-4 3.8H371c-3 0-4.9-2.3-4.9-5.3V29.8c0-3.5 1.3-5 4.7-5h15.6c3.6 0 5 1.8 5 5.4l.1 21.2z"/></g></svg>