<?xml version="1.0" encoding="iso-8859-1"?>
<!-- Generator: Adobe Illustrator 19.0.0, SVG Export Plug-In . SVG Version: 6.00 Build 0)  -->
<svg version="1.1" id="Capa_1" xmlns="http://www.w3.org/2000/svg" xmlns:xlink="http://www.w3.org/1999/xlink" x="0px" y="0px"
	 viewBox="0 0 422.525 422.525" style="enable-background:new 0 0 422.525 422.525;" xml:space="preserve">
<g>
	<g>
		<path d="M392.982,228.978c-1.955-30.998-11.807-60.982-28.62-87.098l-0.56-0.04v-0.36v-0.2c-4.808-7.473-10.156-14.586-16-21.28
			c6.082-12.393,9.579-25.893,10.28-39.68c0-48.8-31.52-80.32-80.32-80.32c-41.12,0-69.92,22.44-77.96,58.72
			C99.441,65.05,23.214,151.539,29.544,251.9c6.33,100.361,92.819,176.588,193.18,170.258
			C323.084,415.828,399.311,329.338,392.982,228.978z M277.202,10V9.84c33.96,0,70.28,18.44,70.28,70.28
			c-0.806,13.375-4.418,26.432-10.6,38.32v0.36c-16.84,36-48.68,74.08-59.52,86.6c-15-17.32-70.28-84-70.28-125.24
			C206.922,28.44,243.242,10,277.202,10z M38.761,240.32C38.714,167.4,84.653,102.377,153.395,78.057
			c-2.106,8.682,0.385,19.407,7.487,32.063c5.07,8.565,10.979,16.605,17.64,24c12.4,14.6,17.52,20.64,4,36.52
			c-8,9.24-20,12.52-32.52,16c-21.72,5.96-46.32,12.68-49.64,52.44c-3.56,42.44-12,60.4-17.88,62.84c-0.6,0.24-1.96,0.8-4.6-1.48
			c-2.64-2.28-4.4-13.28-5.72-21.72c-2.68-16.88-5.44-34.32-17-38.68c-5.565-1.705-11.604-0.777-16.4,2.52
			C38.761,241.8,38.761,241.08,38.761,240.32z M43.162,279.03c-1.884-8.172-3.167-16.471-3.84-24.83v-0.36
			c5.32-4,9.68-5.76,12.28-4.76c6.08,2.28,8.72,18.8,10.6,30.84c1.88,12.04,3.68,23.4,9.08,28c2.766,2.508,6.347,3.929,10.08,4
			c1.687,0.002,3.358-0.324,4.92-0.96c15.52-6.32,21.68-42.28,24-71.32c2.72-32.72,21.04-37.76,42.28-43.56
			c13.56-3.72,27.6-7.56,37.48-19.16c19.12-22.4,8.4-34.96-4-49.56c-6.251-6.955-11.798-14.512-16.56-22.56
			c-7.72-13.72-7.64-21.64-6.24-25.88c0.761-2.517,2.487-4.63,4.8-5.88c9.62-2.413,19.429-3.992,29.32-4.72
			c-0.434,3.785-0.661,7.59-0.68,11.4c0,51.44,73.48,132.8,76.6,136.24c1.878,2.055,5.066,2.198,7.12,0.32
			c0.111-0.102,0.218-0.208,0.32-0.32c2.2-2.44,40-44.24,61.6-86.68c4.657,5.68,8.946,11.652,12.84,17.88
			c1.92,3.76,9.4,21.56-11.4,36c-16.64,11.6-25.36,23.2-26.64,35.52c-1.2,11.36,4,22.88,15.32,35.2
			c12.912,14.962,17.945,35.17,13.56,54.44c-2.28,12.057-10.654,22.068-22.12,26.44c-17.4,6.2-72.84,29.44-74.48,73.24
			C156.836,429.337,64.499,371.596,43.162,279.03z M282.759,396.454c-7.461,3.449-15.16,6.358-23.037,8.706v-0.36
			c4-35.56,52-55.56,67.56-61.04c14.691-5.472,25.489-18.178,28.52-33.56c5.085-22.563-0.854-46.2-16-63.68
			c-9.4-10.04-13.56-18.96-12.68-27.28c0.96-9.24,8.28-18.48,22.4-28.32c8.271-5.286,14.373-13.361,17.2-22.76
			C406.577,254.387,368.986,356.598,282.759,396.454z"/>
	</g>
</g>
<g>
	<g>
		<path d="M277.202,38.36c-23.136,0-41.898,18.744-41.92,41.88c0.022,23.149,18.771,41.916,41.92,41.96h0
			c23.152,0,41.92-18.768,41.92-41.92C319.121,57.128,300.353,38.36,277.202,38.36z M277.202,112.4c-17.673,0-32-14.327-32-32
			s14.327-32,32-32c17.673,0,32,14.327,32,32S294.875,112.4,277.202,112.4z"/>
	</g>
</g>
<g>
</g>
<g>
</g>
<g>
</g>
<g>
</g>
<g>
</g>
<g>
</g>
<g>
</g>
<g>
</g>
<g>
</g>
<g>
</g>
<g>
</g>
<g>
</g>
<g>
</g>
<g>
</g>
<g>
</g>
</svg>
