<svg id="Layer_1" enable-background="new 0 0 512 512" height="512" viewBox="0 0 512 512" width="512" xmlns="http://www.w3.org/2000/svg"><g><path d="m492.738 209.424-80.477-80.477 8.552-8.552c9.229-9.229 9.229-24.246 0-33.475-4.471-4.471-10.415-6.933-16.738-6.933s-12.267 2.462-16.737 6.933l-8.552 8.552-76.209-76.209c-25.682-25.683-67.471-25.683-93.153 0l-78.344 78.342-8.548-8.548c-9.229-9.23-24.246-9.23-33.475 0-9.229 9.229-9.229 24.246 0 33.475l8.548 8.548-78.343 78.343c-25.682 25.682-25.682 67.471 0 93.153l79.463 79.463-8.602 8.603c-9.229 9.229-9.229 24.246 0 33.475 4.471 4.471 10.415 6.933 16.738 6.933s12.267-2.462 16.737-6.933l8.603-8.602 77.224 77.224c12.839 12.84 29.707 19.261 46.575 19.261s33.736-6.421 46.576-19.262l76.155-76.154 9.672 9.671c4.471 4.471 10.415 6.933 16.737 6.933 6.323 0 12.267-2.462 16.737-6.933 4.471-4.471 6.933-10.415 6.933-16.737 0-6.323-2.462-12.267-6.933-16.737l-9.671-9.672 80.532-80.532c25.683-25.683 25.683-67.471 0-93.153zm-180.763 223.334-7.907-69.451c26.261-11.81 47.434-32.985 59.242-59.247l69.436 7.905c-8.868 28.187-24.376 53.763-45.698 75.085-21.372 21.373-47.05 36.87-75.073 45.708zm-187.025-45.709c-21.75-21.75-36.942-47.607-45.599-75.096l69.338-7.894c11.808 26.262 32.981 47.437 59.242 59.247l-7.903 69.422c-28.192-8.876-53.784-24.384-75.078-45.679zm-49.555-172.372 67.89 7.729c-3.219 10.819-4.874 22.116-4.874 33.593 0 11.663 1.715 22.93 4.892 33.574l-67.912 7.732c-6.167-27.167-6.166-55.46.004-82.628zm78.018 41.323c0-20.079 5.798-39.522 16.768-56.228 2.274-3.463 1.31-8.114-2.153-10.387-3.463-2.272-8.113-1.309-10.387 2.153-3.441 5.241-6.422 10.724-8.961 16.385l-69.323-7.892c8.658-27.483 23.849-53.334 45.594-75.079 21.748-21.748 47.602-36.94 75.089-45.597l7.894 69.338c-9.979 4.466-19.354 10.326-27.806 17.471-3.164 2.675-3.56 7.407-.886 10.571 2.674 3.163 7.406 3.56 10.571.886 18.465-15.609 41.971-24.206 66.189-24.206 56.566 0 102.587 46.02 102.587 102.587s-46.023 102.585-102.589 102.585-102.587-46.021-102.587-102.587zm102.587-117.588c-11.448 0-22.757 1.681-33.581 4.906l-7.733-67.924c27.167-6.168 55.46-6.168 82.627 0l-7.731 67.912c-10.646-3.179-21.917-4.894-33.582-4.894zm48.067 10.28 7.894-69.339c27.486 8.657 53.341 23.849 75.089 45.597 21.325 21.325 36.84 47.023 45.693 75.068l-69.439 7.906c-11.81-26.255-32.98-47.424-59.237-59.232zm93.878-51.165c1.637-1.637 3.814-2.539 6.13-2.539s4.492.901 6.13 2.539c3.38 3.38 3.38 8.879 0 12.259l-8.552 8.552-12.26-12.26zm-177.914-67.657c9.608-9.608 22.382-14.899 35.969-14.899s26.361 5.291 35.969 14.899l41.319 41.318c-49.324-20.552-105.25-20.552-154.574 0zm-120.366 82.055c-3.38-3.38-3.38-8.879 0-12.259 3.38-3.379 8.879-3.379 12.259 0l8.548 8.548-12.26 12.26zm-84.694 144.075c0-13.587 5.291-26.361 14.899-35.969l41.319-41.318c-20.552 49.324-20.552 105.25 0 154.574l-41.319-41.318c-9.608-9.608-14.899-22.382-14.899-35.969zm98.018 157.509c-1.637 1.637-3.814 2.539-6.13 2.539s-4.492-.901-6.13-2.539c-3.38-3.38-3.38-8.879 0-12.259l8.602-8.603 12.26 12.26zm178.98 68.621c-9.608 9.608-22.382 14.899-35.969 14.899s-26.361-5.291-35.969-14.899l-41.151-41.151c14.613 6.08 30.005 10.43 45.955 12.93.394.062.784.091 1.171.091 3.63 0 6.822-2.641 7.401-6.341.641-4.092-2.157-7.93-6.25-8.571-4.205-.659-8.365-1.465-12.482-2.399l7.741-67.994c10.647 3.178 21.918 4.895 33.584 4.895s22.937-1.716 33.584-4.895l7.745 68.035c-13.405 3.038-27.246 4.603-41.329 4.603-.003 0-.01 0-.012 0-4.142 0-7.5 3.358-7.501 7.5 0 4.143 3.358 7.501 7.5 7.501h.012c26.891 0 52.973-5.267 77.071-15.307zm119.301-78.742c1.637 1.637 2.539 3.813 2.539 6.129 0 2.315-.901 4.492-2.539 6.13-1.637 1.637-3.813 2.539-6.129 2.539-2.315 0-4.492-.901-6.13-2.539l-9.672-9.671 12.26-12.26zm29.717-70.276c6.332-15.224 10.788-31.292 13.227-47.964.6-4.099-2.237-7.908-6.336-8.507-4.097-.604-7.908 2.238-8.507 6.336-.708 4.837-1.601 9.619-2.671 14.34l-68.003-7.742c3.177-10.644 4.892-21.912 4.892-33.574 0-11.669-1.717-22.942-4.897-33.591l68.01-7.743c2.84 12.503 4.407 25.381 4.608 38.473.064 4.143 3.511 7.422 7.615 7.385 4.143-.063 7.449-3.473 7.385-7.615-.396-25.803-5.668-50.842-15.34-74.039l41.161 41.161c9.608 9.608 14.899 22.382 14.899 35.969s-5.291 26.361-14.899 35.969z"/></g></svg>