<svg height="512" viewBox="0 0 512 512" width="512" xmlns="http://www.w3.org/2000/svg"><g id="solid"><path d="m267.651 272h-18.9c-1.065 0-2.118-.065-3.163-.158a35.685 35.685 0 0 1 -1.283 4.71c-8.287 23.6-35.474 101.4-42.6 126.171l10.038 3.346.846-2.01.017-.041 53.794-127.772a19.993 19.993 0 0 0 1.251-4.246z"/><path d="m264.24 448v-2.38a21.979 21.979 0 0 0 -15.04-20.871l-9.532-3.177a37.939 37.939 0 0 1 8.573 24.051v2.377z"/><path d="m320 240h-39.762a8 8 0 0 1 -5-14.247l5.072-4.058-23.587-18.869-21.211 21.211a18.741 18.741 0 0 0 5.565 30.332c.128.05.254.1.38.159 2.265.952 78.543 1.472 78.543 1.472z"/><path d="m268.109 191.442 25.01 20.008 4.858-3.886a38.072 38.072 0 0 0 8.761-9.967c.031-.055.055-.112.087-.166s.077-.115.114-.175a37.853 37.853 0 0 0 5.3-19.365v-13.891a20 20 0 0 0 -40 0v19.961.039a7.973 7.973 0 0 1 -2.368 5.68z"/><path d="m232.238 445.623a21.973 21.973 0 0 0 -15.038-20.872l-27.014-9-11.224-2.251c-.064-.012-.127-.024-.19-.038l-22.849-4.562-1.527 2.29a60.282 60.282 0 0 0 -10.158 33.548v3.262h88z"/><path d="m244.925 192h-20.969l8.832 12.137z"/><path d="m420.243 167.308-7.448 7.449 5.586 3.723z"/><path d="m307.972 220.058-4.012 3.209q.035.366.035.733h32.4l-20.366-11.915a54.464 54.464 0 0 1 -8.057 7.973z"/><path d="m392.239 115.314-16 16v6.686a20.1 20.1 0 0 0 8 16l15.25 11.437 21.436-21.437z"/><path d="m381.417 103.508-15.17-18.203-12.636 12.636 15.167 18.206z"/><path d="m336 256h.238a7.994 7.994 0 0 1 3.578.845l14.311 7.155h20.111a10.011 10.011 0 0 0 10-10v-14h-8a7.987 7.987 0 0 1 -3.577-.845l-12.423-6.211-12.422 6.211a7.994 7.994 0 0 1 -3.578.845h-8.238z"/><path d="m385.45 174.909-10.811-8.109a36.172 36.172 0 0 1 -14.4-28.8v-7.107l-16-19.2v65.752l5.283 1.057a61.177 61.177 0 0 0 35.928-3.593z"/><path d="m429.9 130.343.018.021 1.652 1.651a39.755 39.755 0 0 0 -53.475-57.49l20.059 24.075z"/><path d="m414.905 53.775a16 16 0 1 0 -29.762.115 56.152 56.152 0 0 1 29.762-.115z"/><path d="m312 133.93a36.033 36.033 0 0 1 16 25.986v-47.916h-16z"/><path d="m472 408a8.009 8.009 0 0 0 -8 8 48.055 48.055 0 0 1 -48 48h-376a8 8 0 0 0 0 16h376a64.072 64.072 0 0 0 64-64 8.009 8.009 0 0 0 -8-8z"/><path d="m191.933 290.2-29.617 103.657 23.917 4.783c7.129-24.908 34.621-103.586 42.978-127.39a19.864 19.864 0 0 0 1.011-4.581 34.743 34.743 0 0 1 -8.728-50.859l-18.7-25.7-63.414-35.961-27.091-15.363a48.47 48.47 0 0 0 4.4 51.138l73.706 92.958a8 8 0 0 1 1.538 7.318z"/><path d="m125.682 122.555a48.213 48.213 0 0 0 -3.791 3.28l31.389 17.8 57.071 32.365h43.977l-108.292-63.346c-2.664.929-5.333 1.889-7.978 2.9a48.841 48.841 0 0 0 -12.376 7.001z"/><path d="m292.238 128a36.244 36.244 0 0 1 3.762.2v-20.887l-3.347-3.346-8.969-1.684a268.859 268.859 0 0 0 -116.794 4.033l89.728 52.484a36.052 36.052 0 0 1 35.62-30.8z"/><path d="m236.979 59.118a29.4 29.4 0 0 1 37.078 3.625l28.117 28.117.013.013 5.127 5.127h10.723l-49.115-54.572a13.372 13.372 0 0 0 -15.876-3.007l-7.926 3.963a29.475 29.475 0 0 1 -26.24 0l-18.035-9.017-16.324 12.242c12.139 4.511 29.562 10.972 40.447 14.955a13.385 13.385 0 0 0 12.011-1.446z"/><path d="m112 352a8 8 0 0 0 0 16h16a8 8 0 0 0 0-16z"/><path d="m88 360a8 8 0 0 0 -8-8h-56a8 8 0 0 0 0 16h56a8 8 0 0 0 8-8z"/><path d="m144 304a8 8 0 0 0 -8-8h-48a8 8 0 0 0 0 16h48a8 8 0 0 0 8-8z"/><path d="m24 312h32a8 8 0 0 0 0-16h-32a8 8 0 0 0 0 16z"/><path d="m104 264a8 8 0 0 0 0-16h-8a8 8 0 0 0 0 16z"/><path d="m24 264h40a8 8 0 0 0 0-16h-40a8 8 0 0 0 0 16z"/><path d="m19.96 38.905 9.009 5.27-4.124 8.247a8 8 0 1 0 14.31 7.156l3.654-7.308 86.564 50.635a8 8 0 1 0 8.078-13.81l-87.471-51.166 5.175-10.351a8 8 0 0 0 -14.31-7.156l-4.7 9.411-8.105-4.733a8 8 0 0 0 -8.08 13.81z"/></g></svg>